<?xml version="1.0" encoding="UTF-8" standalone="no"?>
<!-- Created with Inkscape (http://www.inkscape.org/) -->

<svg
   xmlns:dc="http://purl.org/dc/elements/1.1/"
   xmlns:cc="http://creativecommons.org/ns#"
   xmlns:rdf="http://www.w3.org/1999/02/22-rdf-syntax-ns#"
   xmlns:svg="http://www.w3.org/2000/svg"
   xmlns="http://www.w3.org/2000/svg"
   xmlns:sodipodi="http://sodipodi.sourceforge.net/DTD/sodipodi-0.dtd"
   xmlns:inkscape="http://www.inkscape.org/namespaces/inkscape"
   width="800"
   height="800"
   viewBox="0 0 211.66667 211.66667"
   version="1.1"
   id="svg8"
   inkscape:version="0.92.3 (2405546, 2018-03-11)"
   sodipodi:docname="slcdev.logo.svg">
  <defs
     id="defs2" />
  <sodipodi:namedview
     id="base"
     pagecolor="#ffffff"
     bordercolor="#666666"
     borderopacity="1.0"
     inkscape:pageopacity="0.0"
     inkscape:pageshadow="2"
     inkscape:zoom="0.98994949"
     inkscape:cx="169.23"
     inkscape:cy="428.88995"
     inkscape:document-units="mm"
     inkscape:current-layer="layer1"
     showgrid="false"
     units="px"
     width="800px"
     inkscape:window-width="1920"
     inkscape:window-height="1056"
     inkscape:window-x="640"
     inkscape:window-y="1480"
     inkscape:window-maximized="0"
     showguides="true"
     inkscape:guide-bbox="true"
     inkscape:lockguides="false">
    <sodipodi:guide
       position="100,100"
       orientation="0,1"
       id="guide1078"
       inkscape:locked="false"
       inkscape:label=""
       inkscape:color="rgb(0,0,255)" />
    <sodipodi:guide
       position="105,215"
       orientation="1,0"
       id="guide1080"
       inkscape:locked="false"
       inkscape:label=""
       inkscape:color="rgb(0,0,255)" />
    <sodipodi:guide
       position="100,150"
       orientation="0,1"
       id="guide1084"
       inkscape:locked="false"
       inkscape:label=""
       inkscape:color="rgb(0,0,255)" />
    <sodipodi:guide
       position="100,50.246672"
       orientation="0,1"
       id="guide1086"
       inkscape:locked="false" />
    <sodipodi:guide
       position="68.60268,113.10938"
       orientation="1,0"
       id="guide1088"
       inkscape:locked="false" />
  </sodipodi:namedview>
  <metadata
     id="metadata5">
    <rdf:RDF>
      <cc:Work
         rdf:about="">
        <dc:format>image/svg+xml</dc:format>
        <dc:type
           rdf:resource="http://purl.org/dc/dcmitype/StillImage" />
        <dc:title />
      </cc:Work>
    </rdf:RDF>
  </metadata>
  <g
     inkscape:label="Layer 1"
     inkscape:groupmode="layer"
     id="layer1"
     transform="translate(0,-85.333343)">
    <circle
       id="path10"
       cx="105.83334"
       cy="191.16667"
       style="opacity:1;vector-effect:none;fill:#000000;fill-opacity:1;stroke-width:0.26458332;stroke-linecap:butt;stroke-linejoin:miter;stroke-miterlimit:4;stroke-dasharray:none;stroke-dashoffset:0;stroke-opacity:1"
       r="0" />
    <path
       inkscape:connector-curvature="0"
       style="opacity:1;vector-effect:none;fill:#b3b3b3;fill-opacity:0.28301886;stroke:none;stroke-width:0.23511793;stroke-linecap:butt;stroke-linejoin:miter;stroke-miterlimit:4;stroke-dasharray:none;stroke-dashoffset:0;stroke-opacity:1"
       d="M 105.83334,87.959346 A 103.20723,103.20723 0 0 0 2.6260013,191.16667 103.20723,103.20723 0 0 0 105.83334,294.37401 103.20723,103.20723 0 0 0 209.04067,191.16667 103.20723,103.20723 0 0 0 105.83334,87.959346 Z m 0,37.154484 a 66.05263,66.05263 0 0 1 66.05287,66.05284 66.05263,66.05263 0 0 1 -66.05287,66.05288 66.05263,66.05263 0 0 1 -66.052869,-66.05288 66.05263,66.05263 0 0 1 66.052869,-66.05284 z"
       id="path10-7-6-9" />
    <path
       inkscape:connector-curvature="0"
       style="opacity:1;vector-effect:none;fill:#dc7b28;fill-opacity:1;stroke:none;stroke-width:0.22781149;stroke-linecap:butt;stroke-linejoin:miter;stroke-miterlimit:4;stroke-dasharray:none;stroke-dashoffset:0;stroke-opacity:1"
       d="M 105.83333,91.166579 A 100,100 0 0 0 5.8332356,191.16667 100,100 0 0 0 105.83333,291.16677 100,100 0 0 0 205.83343,191.16667 100,100 0 0 0 105.83333,91.166579 Z m 0,35.999871 a 64.000001,64.000001 0 0 1 64.00023,64.00022 64.000001,64.000001 0 0 1 -64.00023,64.00023 64.000001,64.000001 0 0 1 -64.000224,-64.00023 64.000001,64.000001 0 0 1 64.000224,-64.00022 z"
       id="path10-7-6" />
    <path
       style="opacity:1;vector-effect:none;fill:#c9533e;fill-opacity:1;stroke:none;stroke-width:0.80935782;stroke-linecap:butt;stroke-linejoin:miter;stroke-miterlimit:4;stroke-dasharray:none;stroke-dashoffset:0;stroke-opacity:1"
       d="M 400 44.724609 A 355.27524 355.27524 0 0 0 44.724609 400 A 355.27524 355.27524 0 0 0 400 755.27539 A 355.27524 355.27524 0 0 0 755.27539 400 A 355.27524 355.27524 0 0 0 400 44.724609 z M 400 158.10938 A 241.88976 241.88976 0 0 1 641.89062 400 A 241.88976 241.88976 0 0 1 400 641.89062 A 241.88976 241.88976 0 0 1 158.10938 400 A 241.88976 241.88976 0 0 1 400 158.10938 z "
       transform="matrix(0.26458333,0,0,0.26458333,0,85.333343)"
       id="path10-7-6-3" />
    <path
       style="opacity:1;vector-effect:none;fill:#d45c7e;fill-opacity:1;stroke:none;stroke-width:0.70065808;stroke-linecap:butt;stroke-linejoin:miter;stroke-miterlimit:4;stroke-dasharray:none;stroke-dashoffset:0;stroke-opacity:1"
       d="M 400 67.402344 A 332.59843 332.59843 0 0 0 67.402344 400 A 332.59843 332.59843 0 0 0 400 732.59766 A 332.59843 332.59843 0 0 0 732.59766 400 A 332.59843 332.59843 0 0 0 400 67.402344 z M 400 158.10938 A 241.88976 241.88976 0 0 1 448.05664 162.93164 A 241.88977 241.88977 0 0 1 536.58203 200.35938 A 241.88977 241.88977 0 0 1 573.52148 231.47461 A 241.88977 241.88977 0 0 1 589.47852 249.63672 A 241.88976 241.88976 0 0 1 589.47852 249.63867 A 241.88977 241.88977 0 0 1 603.54297 269.30469 A 241.88976 241.88976 0 0 1 603.54297 269.30664 A 241.88977 241.88977 0 0 1 615.57422 290.27734 A 241.88976 241.88976 0 0 1 615.57422 290.2793 A 241.88977 241.88977 0 0 1 625.45117 312.34766 A 241.88976 241.88976 0 0 1 625.45117 312.34961 A 241.88977 241.88977 0 0 1 638.37109 358.88477 A 241.88976 241.88976 0 0 1 638.37109 358.88672 A 241.88977 241.88977 0 0 1 641.89062 400 A 241.88976 241.88976 0 0 1 637.06836 448.05664 A 241.88977 241.88977 0 0 1 599.64062 536.58203 A 241.88977 241.88977 0 0 1 568.52539 573.52148 A 241.88976 241.88976 0 0 1 487.65039 625.45117 A 241.88977 241.88977 0 0 1 441.11523 638.37109 A 241.88976 241.88976 0 0 1 441.11328 638.37109 A 241.88977 241.88977 0 0 1 400 641.89062 A 241.88976 241.88976 0 0 1 351.94336 637.06836 A 241.88977 241.88977 0 0 1 263.41797 599.64062 A 241.88977 241.88977 0 0 1 226.47852 568.52539 A 241.88976 241.88976 0 0 1 210.52148 550.36328 A 241.88977 241.88977 0 0 1 210.52148 550.36133 A 241.88976 241.88976 0 0 1 196.45703 530.69531 A 241.88977 241.88977 0 0 1 196.45703 530.69336 A 241.88976 241.88976 0 0 1 184.42578 509.72266 A 241.88977 241.88977 0 0 1 184.42578 509.7207 A 241.88976 241.88976 0 0 1 174.54883 487.65234 A 241.88977 241.88977 0 0 1 174.54883 487.65039 A 241.88977 241.88977 0 0 1 161.62891 441.11523 A 241.88977 241.88977 0 0 1 161.62891 441.11328 A 241.88977 241.88977 0 0 1 158.10938 400 A 241.88977 241.88977 0 0 1 159.31836 375.85156 A 241.88976 241.88976 0 0 1 162.93164 351.94336 A 241.88977 241.88977 0 0 1 200.35938 263.41797 A 241.88977 241.88977 0 0 1 231.47461 226.47852 A 241.88977 241.88977 0 0 1 312.34961 174.54883 A 241.88977 241.88977 0 0 1 358.88477 161.62891 A 241.88977 241.88977 0 0 1 358.88672 161.62891 A 241.88977 241.88977 0 0 1 400 158.10938 z "
       transform="matrix(0.26458333,0,0,0.26458333,0,85.333343)"
       id="path10-7-3" />
    <path
       style="opacity:1;vector-effect:none;fill:#a84f71;fill-opacity:1;stroke:none;stroke-width:0.67677355;stroke-linecap:butt;stroke-linejoin:miter;stroke-miterlimit:4;stroke-dasharray:none;stroke-dashoffset:0;stroke-opacity:1"
       d="M 400 78.740234 A 321.26057 321.26058 0 0 0 78.740234 400 A 321.26057 321.26058 0 0 0 400 721.25977 A 321.26057 321.26058 0 0 0 721.25977 400 A 321.26057 321.26058 0 0 0 400 78.740234 z M 400 158.10938 A 241.88976 241.88976 0 0 1 641.89062 400 A 241.88976 241.88976 0 0 1 400 641.89062 A 241.88976 241.88976 0 0 1 158.10938 400 A 241.88976 241.88976 0 0 1 400 158.10938 z "
       transform="matrix(0.26458333,0,0,0.26458333,0,85.333343)"
       id="path10-7-3-7" />
    <path
       inkscape:connector-curvature="0"
       style="opacity:1;vector-effect:none;fill:#b3b3b3;fill-opacity:0.28235295;stroke:none;stroke-width:0.15780358;stroke-linecap:butt;stroke-linejoin:miter;stroke-miterlimit:4;stroke-dasharray:none;stroke-dashoffset:0;stroke-opacity:1"
       d="m 169.83334,191.16667 a 64.000002,64.000002 0 0 1 -64,64 64.000002,64.000002 0 0 1 -63.999995,-64 64.000002,64.000002 0 0 1 63.999995,-64 64.000002,64.000002 0 0 1 64,64 z"
       id="path10-7-3-5-2" />
    <path
       style="opacity:1;vector-effect:none;fill:#45415c;fill-opacity:1;stroke:none;stroke-width:0.59642297;stroke-linecap:butt;stroke-linejoin:miter;stroke-miterlimit:4;stroke-dasharray:none;stroke-dashoffset:0;stroke-opacity:1"
       d="M 400 112.75586 A 287.24409 287.24409 0 0 0 112.75586 400 A 287.24409 287.24409 0 0 0 400 687.24414 A 287.24409 287.24409 0 0 0 687.24414 400 A 287.24409 287.24409 0 0 0 400 112.75586 z M 400 158.10938 A 241.88976 241.88976 0 0 1 448.05664 162.93164 A 241.88976 241.88976 0 0 1 536.58203 200.35938 A 241.88976 241.88976 0 0 1 573.52148 231.47461 A 241.88976 241.88976 0 0 1 589.47852 249.63672 A 241.88976 241.88976 0 0 1 589.47852 249.63867 A 241.88976 241.88976 0 0 1 603.54297 269.30469 A 241.88976 241.88976 0 0 1 603.54297 269.30664 A 241.88976 241.88976 0 0 1 615.57422 290.27734 A 241.88976 241.88976 0 0 1 615.57422 290.2793 A 241.88976 241.88976 0 0 1 625.45117 312.34766 A 241.88976 241.88976 0 0 1 625.45117 312.34961 A 241.88976 241.88976 0 0 1 638.37109 358.88477 A 241.88976 241.88976 0 0 1 638.37109 358.88672 A 241.88976 241.88976 0 0 1 641.89062 400 A 241.88976 241.88976 0 0 1 637.06836 448.05664 A 241.88976 241.88976 0 0 1 599.64062 536.58203 A 241.88976 241.88976 0 0 1 568.52539 573.52148 A 241.88976 241.88976 0 0 1 487.65039 625.45117 A 241.88976 241.88976 0 0 1 441.11523 638.37109 A 241.88976 241.88976 0 0 1 441.11328 638.37109 A 241.88976 241.88976 0 0 1 400 641.89062 A 241.88976 241.88976 0 0 1 351.94336 637.06836 A 241.88976 241.88976 0 0 1 263.41797 599.64062 A 241.88976 241.88976 0 0 1 226.47852 568.52539 A 241.88976 241.88976 0 0 1 210.52148 550.36328 A 241.88976 241.88976 0 0 1 210.52148 550.36133 A 241.88976 241.88976 0 0 1 196.45703 530.69531 A 241.88976 241.88976 0 0 1 196.45703 530.69336 A 241.88976 241.88976 0 0 1 184.42578 509.72266 A 241.88976 241.88976 0 0 1 184.42578 509.7207 A 241.88976 241.88976 0 0 1 174.54883 487.65234 A 241.88976 241.88976 0 0 1 174.54883 487.65039 A 241.88976 241.88976 0 0 1 161.62891 441.11523 A 241.88976 241.88976 0 0 1 161.62891 441.11328 A 241.88976 241.88976 0 0 1 158.10938 400 A 241.88976 241.88976 0 0 1 159.31836 375.85156 A 241.88976 241.88976 0 0 1 162.93164 351.94336 A 241.88976 241.88976 0 0 1 200.35938 263.41797 A 241.88976 241.88976 0 0 1 231.47461 226.47852 A 241.88976 241.88976 0 0 1 312.34961 174.54883 A 241.88976 241.88976 0 0 1 358.88477 161.62891 A 241.88976 241.88976 0 0 1 358.88672 161.62891 A 241.88976 241.88976 0 0 1 400 158.10938 z "
       transform="matrix(0.26458333,0,0,0.26458333,0,85.333343)"
       id="path10-7-3-5" />
    <text
       xml:space="preserve"
       style="font-style:normal;font-weight:normal;font-size:10.58333302px;line-height:1.25;font-family:sans-serif;letter-spacing:0px;word-spacing:0px;fill:#000000;fill-opacity:1;stroke:none;stroke-width:0.26458332"
       x="96.484299"
       y="164.96886"
       id="text1057"><tspan
         sodipodi:role="line"
         id="tspan1055"
         x="96.484299"
         y="174.33263"
         style="stroke-width:0.26458332" /></text>
    <text
       xml:space="preserve"
       style="font-style:normal;font-variant:normal;font-weight:bold;font-stretch:normal;font-size:42.33333206px;line-height:1.25;font-family:'Fira Code';-inkscape-font-specification:'Fira Code, Bold';font-variant-ligatures:normal;font-variant-caps:normal;font-variant-numeric:normal;font-feature-settings:normal;text-align:start;letter-spacing:0px;word-spacing:0px;writing-mode:lr-tb;text-anchor:start;opacity:0.93999999;fill:#f2f2f2;fill-opacity:1;stroke:none;stroke-width:0.44439489"
       x="66.641373"
       y="173.85809"
       id="text1065"><tspan
         sodipodi:role="line"
         id="tspan1063"
         x="66.641373"
         y="173.85809"
         style="font-style:normal;font-variant:normal;font-weight:bold;font-stretch:normal;font-size:42.33333206px;font-family:'Fira Code';-inkscape-font-specification:'Fira Code, Bold';font-variant-ligatures:normal;font-variant-caps:normal;font-variant-numeric:normal;font-feature-settings:normal;text-align:start;writing-mode:lr-tb;text-anchor:start;fill:#f2f2f2;fill-opacity:1;stroke-width:0.44439489">slc</tspan></text>
    <text
       xml:space="preserve"
       style="font-style:normal;font-weight:normal;font-size:10.58333302px;line-height:1.25;font-family:sans-serif;letter-spacing:0px;word-spacing:0px;opacity:0.93999999;fill:#f2f2f2;fill-opacity:1;stroke:none;stroke-width:0.26458332"
       x="66.154533"
       y="237.69351"
       id="text1076"><tspan
         sodipodi:role="line"
         id="tspan1074"
         x="66.154533"
         y="237.69351"
         style="font-style:normal;font-variant:normal;font-weight:bold;font-stretch:normal;font-size:42.33333206px;font-family:'Fira Code';-inkscape-font-specification:'Fira Code, Bold';font-variant-ligatures:normal;font-variant-caps:normal;font-variant-numeric:normal;font-feature-settings:normal;text-align:start;writing-mode:lr-tb;text-anchor:start;fill:#f2f2f2;fill-opacity:1;stroke-width:0.26458332">dev</tspan></text>
    <text
       xml:space="preserve"
       style="font-style:normal;font-weight:normal;font-size:10.58333302px;line-height:1.25;font-family:sans-serif;letter-spacing:0px;word-spacing:0px;fill:#f2f2f2;fill-opacity:1;stroke:none;stroke-width:0.26458332"
       x="105.82837"
       y="198.02467"
       id="text948"><tspan
         sodipodi:role="line"
         id="tspan946"
         x="105.82837"
         y="198.02467"
         style="font-style:normal;font-variant:normal;font-weight:normal;font-stretch:normal;font-size:25.39999962px;font-family:'Fira Code';-inkscape-font-specification:'Fira Code';text-align:center;text-anchor:middle;fill:#f2f2f2;fill-opacity:1;stroke-width:0.26458332">◇</tspan></text>
  </g>
</svg>
