<?xml version="1.0" encoding="UTF-8" standalone="no"?>
<!-- Created with Inkscape (http://www.inkscape.org/) -->

<svg
   xmlns:dc="http://purl.org/dc/elements/1.1/"
   xmlns:cc="http://creativecommons.org/ns#"
   xmlns:rdf="http://www.w3.org/1999/02/22-rdf-syntax-ns#"
   xmlns:svg="http://www.w3.org/2000/svg"
   xmlns="http://www.w3.org/2000/svg"
   xmlns:sodipodi="http://sodipodi.sourceforge.net/DTD/sodipodi-0.dtd"
   xmlns:inkscape="http://www.inkscape.org/namespaces/inkscape"
   width="800"
   height="800"
   viewBox="0 0 211.66667 211.66667"
   version="1.1"
   id="svg8"
   inkscape:version="0.92.3 (2405546, 2018-03-11)"
   sodipodi:docname="slcdev.logo.svg">
  <defs
     id="defs2" />
  <sodipodi:namedview
     id="base"
     pagecolor="#ffffff"
     bordercolor="#666666"
     borderopacity="1.0"
     inkscape:pageopacity="0.0"
     inkscape:pageshadow="2"
     inkscape:zoom="0.98994949"
     inkscape:cx="300.04476"
     inkscape:cy="428.88995"
     inkscape:document-units="mm"
     inkscape:current-layer="layer1"
     showgrid="false"
     units="px"
     width="800px"
     inkscape:window-width="1920"
     inkscape:window-height="1050"
     inkscape:window-x="0"
     inkscape:window-y="0"
     inkscape:window-maximized="1"
     showguides="true"
     inkscape:guide-bbox="true"
     inkscape:lockguides="false">
    <sodipodi:guide
       position="100,100"
       orientation="0,1"
       id="guide1078"
       inkscape:locked="false"
       inkscape:label=""
       inkscape:color="rgb(0,0,255)" />
    <sodipodi:guide
       position="100,100"
       orientation="1,0"
       id="guide1080"
       inkscape:locked="false" />
    <sodipodi:guide
       position="100,150"
       orientation="0,1"
       id="guide1084"
       inkscape:locked="false"
       inkscape:label=""
       inkscape:color="rgb(0,0,255)" />
    <sodipodi:guide
       position="100,50.246672"
       orientation="0,1"
       id="guide1086"
       inkscape:locked="false" />
    <sodipodi:guide
       position="68.60268,113.10938"
       orientation="1,0"
       id="guide1088"
       inkscape:locked="false" />
  </sodipodi:namedview>
  <metadata
     id="metadata5">
    <rdf:RDF>
      <cc:Work
         rdf:about="">
        <dc:format>image/svg+xml</dc:format>
        <dc:type
           rdf:resource="http://purl.org/dc/dcmitype/StillImage" />
        <dc:title />
      </cc:Work>
    </rdf:RDF>
  </metadata>
  <g
     inkscape:label="Layer 1"
     inkscape:groupmode="layer"
     id="layer1"
     transform="translate(0,-85.333343)">
    <circle
       id="path10"
       cx="105.83334"
       cy="191.16667"
       style="opacity:1;vector-effect:none;fill:#000000;fill-opacity:1;stroke-width:0.26458332;stroke-linecap:butt;stroke-linejoin:miter;stroke-miterlimit:4;stroke-dasharray:none;stroke-dashoffset:0;stroke-opacity:1"
       r="0" />
    <path
       inkscape:connector-curvature="0"
       style="opacity:1;vector-effect:none;fill:#b3b3b3;fill-opacity:0.28301886;stroke:none;stroke-width:0.23511793;stroke-linecap:butt;stroke-linejoin:miter;stroke-miterlimit:4;stroke-dasharray:none;stroke-dashoffset:0;stroke-opacity:1"
       d="M 105.83334,87.959346 A 103.20723,103.20723 0 0 0 2.6260013,191.16667 103.20723,103.20723 0 0 0 105.83334,294.37401 103.20723,103.20723 0 0 0 209.04067,191.16667 103.20723,103.20723 0 0 0 105.83334,87.959346 Z m 0,37.154484 a 66.05263,66.05263 0 0 1 66.05287,66.05284 66.05263,66.05263 0 0 1 -66.05287,66.05288 66.05263,66.05263 0 0 1 -66.052869,-66.05288 66.05263,66.05263 0 0 1 66.052869,-66.05284 z"
       id="path10-7-6-9" />
    <path
       inkscape:connector-curvature="0"
       style="opacity:1;vector-effect:none;fill:#a73200;fill-opacity:1;stroke:none;stroke-width:0.22781149;stroke-linecap:butt;stroke-linejoin:miter;stroke-miterlimit:4;stroke-dasharray:none;stroke-dashoffset:0;stroke-opacity:1"
       d="M 105.83333,91.166579 A 100,100 0 0 0 5.8332356,191.16667 100,100 0 0 0 105.83333,291.16677 100,100 0 0 0 205.83343,191.16667 100,100 0 0 0 105.83333,91.166579 Z m 0,35.999871 a 64.000001,64.000001 0 0 1 64.00023,64.00022 64.000001,64.000001 0 0 1 -64.00023,64.00023 64.000001,64.000001 0 0 1 -64.000224,-64.00023 64.000001,64.000001 0 0 1 64.000224,-64.00022 z"
       id="path10-7-6" />
    <path
       inkscape:connector-curvature="0"
       style="opacity:1;vector-effect:none;fill:#313e50;fill-opacity:1;stroke:none;stroke-width:0.18538246;stroke-linecap:butt;stroke-linejoin:miter;stroke-miterlimit:4;stroke-dasharray:none;stroke-dashoffset:0;stroke-opacity:1"
       d="m 105.83333,103.16688 a 88,88 0 0 0 -87.999793,87.99979 88,88 0 0 0 87.999793,87.9998 88,88 0 0 0 87.9998,-87.9998 88,88 0 0 0 -87.9998,-87.99979 z m 0,23.99957 a 64.000001,64.000001 0 0 1 64.00023,64.00022 64.000001,64.000001 0 0 1 -64.00023,64.00023 64.000001,64.000001 0 0 1 -64.000224,-64.00023 64.000001,64.000001 0 0 1 64.000224,-64.00022 z"
       id="path10-7-3" />
    <path
       inkscape:connector-curvature="0"
       style="opacity:1;vector-effect:none;fill:#822339;fill-opacity:1;stroke:none;stroke-width:0.15780358;stroke-linecap:butt;stroke-linejoin:miter;stroke-miterlimit:4;stroke-dasharray:none;stroke-dashoffset:0;stroke-opacity:1"
       d="m 105.83333,115.16666 a 75.999998,75.999998 0 0 0 -76.000009,76.00001 75.999998,75.999998 0 0 0 76.000009,76.00002 75.999998,75.999998 0 0 0 76.00001,-76.00002 75.999998,75.999998 0 0 0 -76.00001,-76.00001 z m 0,11.99979 a 63.999998,63.999998 0 0 1 64.00023,64.00022 63.999998,63.999998 0 0 1 -64.00023,64.00023 63.999998,63.999998 0 0 1 -64.000224,-64.00023 63.999998,63.999998 0 0 1 64.000224,-64.00022 z"
       id="path10-7-3-5" />
    <path
       inkscape:connector-curvature="0"
       style="opacity:1;vector-effect:none;fill:#b3b3b3;fill-opacity:0.28235295;stroke:none;stroke-width:0.15780358;stroke-linecap:butt;stroke-linejoin:miter;stroke-miterlimit:4;stroke-dasharray:none;stroke-dashoffset:0;stroke-opacity:1"
       d="m 169.83334,191.16667 a 64.000002,64.000002 0 0 1 -64,64 64.000002,64.000002 0 0 1 -63.999995,-64 64.000002,64.000002 0 0 1 63.999995,-64 64.000002,64.000002 0 0 1 64,64 z"
       id="path10-7-3-5-2" />
    <text
       xml:space="preserve"
       style="font-style:normal;font-weight:normal;font-size:10.58333302px;line-height:1.25;font-family:sans-serif;letter-spacing:0px;word-spacing:0px;fill:#000000;fill-opacity:1;stroke:none;stroke-width:0.26458332"
       x="96.484299"
       y="164.96886"
       id="text1057"><tspan
         sodipodi:role="line"
         id="tspan1055"
         x="96.484299"
         y="174.33263"
         style="stroke-width:0.26458332" /></text>
    <g
       id="g1095"
       transform="translate(-0.52916667)"
       style="fill:#f2f2f2;fill-opacity:1">
      <text
         id="text1065"
         y="173.85809"
         x="67.17054"
         style="font-style:normal;font-variant:normal;font-weight:bold;font-stretch:normal;font-size:42.33333206px;line-height:1.25;font-family:'Fira Code';-inkscape-font-specification:'Fira Code, Bold';font-variant-ligatures:normal;font-variant-caps:normal;font-variant-numeric:normal;font-feature-settings:normal;text-align:start;letter-spacing:0px;word-spacing:0px;writing-mode:lr-tb;text-anchor:start;opacity:0.93999999;fill:#f2f2f2;fill-opacity:1;stroke:none;stroke-width:0.44439489"
         xml:space="preserve"><tspan
           style="font-style:normal;font-variant:normal;font-weight:bold;font-stretch:normal;font-size:42.33333206px;font-family:'Fira Code';-inkscape-font-specification:'Fira Code, Bold';font-variant-ligatures:normal;font-variant-caps:normal;font-variant-numeric:normal;font-feature-settings:normal;text-align:start;writing-mode:lr-tb;text-anchor:start;stroke-width:0.44439489;fill:#f2f2f2;fill-opacity:1"
           y="173.85809"
           x="67.17054"
           id="tspan1063"
           sodipodi:role="line">slc</tspan></text>
      <text
         id="text1076"
         y="237.69351"
         x="66.683701"
         style="font-style:normal;font-weight:normal;font-size:10.58333302px;line-height:1.25;font-family:sans-serif;letter-spacing:0px;word-spacing:0px;opacity:0.93999999;fill:#f2f2f2;fill-opacity:1;stroke:none;stroke-width:0.26458332"
         xml:space="preserve"><tspan
           style="font-style:normal;font-variant:normal;font-weight:bold;font-stretch:normal;font-size:42.33333206px;font-family:'Fira Code';-inkscape-font-specification:'Fira Code, Bold';font-variant-ligatures:normal;font-variant-caps:normal;font-variant-numeric:normal;font-feature-settings:normal;text-align:start;writing-mode:lr-tb;text-anchor:start;stroke-width:0.26458332;fill:#f2f2f2;fill-opacity:1"
           y="237.69351"
           x="66.683701"
           id="tspan1074"
           sodipodi:role="line">dev</tspan></text>
      <rect
         transform="rotate(-45)"
         y="205.01073"
         x="-66.518303"
         height="10"
         width="10"
         id="rect1082"
         style="opacity:0.93999999;vector-effect:none;fill:#f2f2f2;fill-opacity:1;stroke:none;stroke-width:0.22781149;stroke-linecap:butt;stroke-linejoin:miter;stroke-miterlimit:4;stroke-dasharray:none;stroke-dashoffset:0;stroke-opacity:1" />
    </g>
  </g>
</svg>
